<?xml version="1.0" encoding="UTF-8"?>
<svg version="1.1" xmlns="http://www.w3.org/2000/svg" width="500" height="500">
<path d="M0 0 C165 0 330 0 500 0 C500 165 500 330 500 500 C335 500 170 500 0 500 C0 335 0 170 0 0 Z " fill="#0F1727" transform="translate(0,0)"/>
<path d="M0 0 C-0.165 0.639375 -0.33 1.27875 -0.5 1.9375 C-1.22775415 6.39499414 -2.07017442 11.85965115 0 16 C3.05629287 17.08488412 5.96570732 17.12564984 9.18612671 17.12698364 C10.23472366 17.12980347 11.28332062 17.13262329 12.36369324 17.13552856 C13.50872818 17.13350433 14.65376312 17.1314801 15.83349609 17.12939453 C17.6487101 17.13202301 17.6487101 17.13202301 19.50059509 17.13470459 C22.81679299 17.13835183 26.1329285 17.13749636 29.44912291 17.1343255 C32.92300214 17.13179166 36.39687872 17.13414241 39.87075806 17.13571167 C45.70648679 17.13753085 51.54220287 17.13513414 57.37792969 17.13037109 C64.11709782 17.12493405 70.85623568 17.12668808 77.59540308 17.1321975 C83.386615 17.13674186 89.17781784 17.13737254 94.96903098 17.13475883 C98.42548914 17.13320269 101.8819331 17.13298402 105.33839035 17.13629532 C109.19484372 17.13973168 113.05126346 17.13496265 116.90771484 17.12939453 C118.04870132 17.13141876 119.18968781 17.13344299 120.36524963 17.13552856 C125.35106596 17.12219273 130.10319549 17.07332969 135 16 C135.02725341 14.2709226 135.04650987 12.54171824 135.0625 10.8125 C135.07990234 9.36810547 135.07990234 9.36810547 135.09765625 7.89453125 C135.00468299 5.13880371 134.57267638 2.68900295 134 0 C142.0070844 1.22858979 149.5165317 3.22956774 157.1875 5.8125 C158.21552734 6.14314453 159.24355469 6.47378906 160.30273438 6.81445312 C168.40539812 9.51534104 176.49736243 12.46243829 180.84765625 20.26953125 C187.87060137 36.91034021 190.46381167 56.08043071 191 74 C191.03254883 74.87978516 191.06509766 75.75957031 191.09863281 76.66601562 C191.83843036 98.94961447 189.0110349 120.51732947 182.62792969 141.88769531 C182.00950456 143.96802742 181.4300026 146.05669456 180.8515625 148.1484375 C178.18316791 157.38693193 174.63724202 165.03474387 166.58984375 170.6953125 C152.59764452 178.38598891 135.8876494 182.11287921 120.359375 185.2734375 C117.14810872 185.82259858 117.14810872 185.82259858 115 187 C73.81366451 194.53259285 31.1414085 192.1863843 -8.9375 180.0625 C-10.48993408 179.59529541 -10.48993408 179.59529541 -12.07373047 179.11865234 C-21.33656536 176.17499929 -31.67284605 172.71121887 -38 165 C-38.64066406 164.27167969 -39.28132813 163.54335937 -39.94140625 162.79296875 C-42.25274438 159.65709254 -43.63124955 156.50658394 -44.9375 152.875 C-45.31708862 151.83436401 -45.31708862 151.83436401 -45.7043457 150.77270508 C-59.59268056 111.62890059 -63.17857338 62.3965482 -48 23 C-46.3385005 19.86560364 -44.58925732 17.41311736 -42 15 C-41.12085938 14.17242187 -40.24171875 13.34484375 -39.3359375 12.4921875 C-35.75281599 9.55492213 -31.95045786 8.27507907 -27.5625 6.9375 C-26.78060303 6.6885498 -25.99870605 6.43959961 -25.19311523 6.18310547 C-5.50165846 0 -5.50165846 0 0 0 Z " fill="#3D4C72" transform="translate(177,52)"/>
<path d="M0 0 C0.86290179 10.13909598 1.17692255 20.21472366 1.203125 30.38671875 C1.20736607 31.52497573 1.20736607 31.52497573 1.21169281 32.6862278 C1.22656278 36.71147615 1.23586592 40.73668987 1.24023438 44.76196289 C1.24459294 48.02249501 1.25840019 51.28275863 1.28125 54.54321289 C1.39098599 70.5746833 1.39445673 86.54128659 -0.2109375 102.5078125 C-0.31194763 103.60852585 -0.41295776 104.7092392 -0.51702881 105.8433075 C-1.07149759 110.55692764 -1.51034999 113.32846836 -4.34838867 117.22070312 C-6.78625193 119.1184156 -9.01684522 120.2783596 -11.93310547 121.28417969 C-14.34049091 122.11792102 -16.65952699 123.10457324 -19.00390625 124.1015625 C-28.4642507 128.01758113 -37.91527523 131.171451 -48 133 C-48.9384375 133.19078125 -49.876875 133.3815625 -50.84375 133.578125 C-87.18670092 140.72421085 -128.08696234 136.61867069 -160 117 C-163.78199899 113.79574196 -163.96600046 110.01161605 -164.625 105.3125 C-164.74617187 104.55388672 -164.86734375 103.79527344 -164.9921875 103.01367188 C-167.42240932 86.78137502 -167.15732868 70.36886651 -167.13037109 54.00146484 C-167.12502114 50.14025936 -167.13033822 46.27917066 -167.13671875 42.41796875 C-167.13998984 31.70585128 -167.12973836 21.00393924 -166.5546875 10.3046875 C-166.51594513 9.57468536 -166.47720276 8.84468323 -166.43728638 8.09255981 C-166.13239939 3.26479878 -166.13239939 3.26479878 -165 1 C-158.94588767 1.94555433 -153.10925695 3.44723256 -147.1875 5 C-146.12595703 5.27328125 -145.06441406 5.5465625 -143.97070312 5.828125 C-142.96330078 6.09109375 -141.95589844 6.3540625 -140.91796875 6.625 C-139.99781982 6.86476562 -139.0776709 7.10453125 -138.12963867 7.3515625 C-136 8 -136 8 -135 9 C-134.70427773 10.39077307 -134.43834311 11.7879361 -134.1875 13.1875 C-132.63285909 20.25608314 -129.07609972 24.2438666 -123.5859375 28.703125 C-115.87357087 32.57095841 -106.87939785 32.30769903 -98.44921875 32.30078125 C-96.68551689 32.30720894 -96.68551689 32.30720894 -94.88618469 32.31376648 C-92.41119019 32.31948089 -89.9361789 32.3200315 -87.46118164 32.31567383 C-83.70885046 32.31251796 -79.95731191 32.3359968 -76.20507812 32.36132812 C-73.78645931 32.36360206 -71.36783841 32.36430418 -68.94921875 32.36328125 C-67.84462814 32.372491 -66.74003754 32.38170074 -65.60197449 32.39118958 C-55.01104026 32.32941433 -44.28756375 31.59967052 -36.515625 23.74609375 C-33.14909018 19.86763739 -31.89341161 16.84096705 -30.9296875 11.83203125 C-30.66647705 10.47621948 -30.66647705 10.47621948 -30.39794922 9.09301758 C-30.20096436 8.05697388 -30.20096436 8.05697388 -30 7 C-25.56404241 5.82741384 -21.12599432 4.66294388 -16.6875 3.5 C-15.42486328 3.16613281 -14.16222656 2.83226562 -12.86132812 2.48828125 C-11.04858398 2.01455078 -11.04858398 2.01455078 -9.19921875 1.53125 C-8.08377686 1.23798828 -6.96833496 0.94472656 -5.8190918 0.64257812 C-3 0 -3 0 0 0 Z " fill="#E7F2F5" transform="translate(328,239)"/>
<path d="M0 0 C1.15732635 -0.0033284 2.31465271 -0.0066568 3.50704956 -0.01008606 C5.93894051 -0.01511118 8.37083824 -0.01749577 10.80273438 -0.01733398 C14.4623592 -0.01951349 18.12167853 -0.03769823 21.78125 -0.05664062 C35.12811761 -0.08826733 48.13351986 0.44845583 61.3671875 2.16796875 C62.74444102 2.31869856 64.12212848 2.46552211 65.50024414 2.6081543 C78.13716969 3.93182429 94.78185513 7.17432356 104.3671875 16.16796875 C105.8971868 20.70900668 106.54475802 25.45238195 107.3671875 30.16796875 C107.57472656 31.15925781 107.78226563 32.15054688 107.99609375 33.171875 C110.06737251 44.04970961 109.55084976 55.14399481 109.3671875 66.16796875 C105.9731989 66.96768331 102.57693946 67.75723592 99.1796875 68.54296875 C97.67450562 68.89294922 97.67450562 68.89294922 96.13891602 69.25 C90.6952885 70.49235258 85.34818547 71.51503943 79.8046875 72.16796875 C76.11568542 72.6640095 73.8399641 73.06259136 71.1796875 75.73046875 C70.5815625 76.53484375 69.9834375 77.33921875 69.3671875 78.16796875 C66.81591982 79.44360259 64.90396664 79.3717017 62.0546875 79.41796875 C60.63736328 79.45664063 60.63736328 79.45664063 59.19140625 79.49609375 C56.3671875 79.16796875 56.3671875 79.16796875 54.12379456 77.67172241 C50.68256146 75.79449916 48.34617839 75.78743013 44.43725586 75.77978516 C43.42167351 75.77189972 43.42167351 75.77189972 42.38557434 75.76385498 C40.15915507 75.75070665 37.93345713 75.75937309 35.70703125 75.76953125 C34.15434126 75.76750925 32.6016522 75.76459676 31.04896545 75.76083374 C27.80004811 75.75641761 24.5513787 75.7628192 21.30249023 75.77685547 C17.14054388 75.79396145 12.97917734 75.7840931 8.81725216 75.76613808 C5.6130385 75.75529305 2.40896215 75.75874958 -0.79525566 75.76652145 C-2.32983914 75.76852074 -3.86443513 75.76607369 -5.39900398 75.75908279 C-7.54376343 75.75145461 -9.68758567 75.76308961 -11.83227539 75.77978516 C-13.0518544 75.78217194 -14.27143341 75.78455872 -15.52796936 75.78701782 C-18.90845549 76.20178896 -20.10430156 76.99689475 -22.6328125 79.16796875 C-27.90886123 79.98362531 -33.70124461 80.29367709 -38.3203125 77.29296875 C-40.6328125 75.16796875 -40.6328125 75.16796875 -41.6328125 73.16796875 C-43.83309807 72.59478039 -46.06371384 72.13707776 -48.30078125 71.73046875 C-48.97321365 71.60486572 -49.64564606 71.4792627 -50.3384552 71.34985352 C-52.49764653 70.94764646 -54.65872898 70.55709702 -56.8203125 70.16796875 C-58.9637168 69.7773382 -61.10657432 69.38414512 -63.24861145 68.98608398 C-65.20532474 68.62317304 -67.16354357 68.26840767 -69.12182617 67.9140625 C-72.40516548 67.21634434 -75.47560964 66.29850878 -78.6328125 65.16796875 C-78.99778002 45.78413799 -78.99778002 45.78413799 -77.25390625 37.28125 C-76.75710121 34.79097568 -76.37389117 32.35018717 -76.04296875 29.8359375 C-75.87921753 28.69439209 -75.87921753 28.69439209 -75.7121582 27.52978516 C-75.49817947 26.03589951 -75.30168325 24.53936773 -75.12573242 23.04052734 C-74.51912486 19.09642497 -73.71895375 17.257471 -70.9296875 14.359375 C-50.77388834 0.96197769 -23.45073911 0.02424524 0 0 Z " fill="#556C97" transform="translate(228.6328125,93.83203125)"/>
<path d="M0 0 C-0.165 0.639375 -0.33 1.27875 -0.5 1.9375 C-1.22775415 6.39499414 -2.07017442 11.85965115 0 16 C3.05629287 17.08488412 5.96570732 17.12564984 9.18612671 17.12698364 C10.23472366 17.12980347 11.28332062 17.13262329 12.36369324 17.13552856 C13.50872818 17.13350433 14.65376312 17.1314801 15.83349609 17.12939453 C17.6487101 17.13202301 17.6487101 17.13202301 19.50059509 17.13470459 C22.81679299 17.13835183 26.1329285 17.13749636 29.44912291 17.1343255 C32.92300214 17.13179166 36.39687872 17.13414241 39.87075806 17.13571167 C45.70648679 17.13753085 51.54220287 17.13513414 57.37792969 17.13037109 C64.11709782 17.12493405 70.85623568 17.12668808 77.59540308 17.1321975 C83.386615 17.13674186 89.17781784 17.13737254 94.96903098 17.13475883 C98.42548914 17.13320269 101.8819331 17.13298402 105.33839035 17.13629532 C109.19484372 17.13973168 113.05126346 17.13496265 116.90771484 17.12939453 C118.04870132 17.13141876 119.18968781 17.13344299 120.36524963 17.13552856 C125.35106596 17.12219273 130.10319549 17.07332969 135 16 C135.02725341 14.2709226 135.04650987 12.54171824 135.0625 10.8125 C135.07990234 9.36810547 135.07990234 9.36810547 135.09765625 7.89453125 C135.00468299 5.13880371 134.57267638 2.68900295 134 0 C142.0070844 1.22858979 149.5165317 3.22956774 157.1875 5.8125 C158.21552734 6.14314453 159.24355469 6.47378906 160.30273438 6.81445312 C168.40539812 9.51534104 176.49736243 12.46243829 180.84765625 20.26953125 C187.87060137 36.91034021 190.46381167 56.08043071 191 74 C191.03254883 74.87978516 191.06509766 75.75957031 191.09863281 76.66601562 C191.83843036 98.94961447 189.0110349 120.51732947 182.62792969 141.88769531 C182.00950456 143.96802742 181.4300026 146.05669456 180.8515625 148.1484375 C178.18316791 157.38693193 174.63724202 165.03474387 166.58984375 170.6953125 C152.59764452 178.38598891 135.8876494 182.11287921 120.359375 185.2734375 C117.14810872 185.82259858 117.14810872 185.82259858 115 187 C73.81366451 194.53259285 31.1414085 192.1863843 -8.9375 180.0625 C-10.48993408 179.59529541 -10.48993408 179.59529541 -12.07373047 179.11865234 C-21.33656536 176.17499929 -31.67284605 172.71121887 -38 165 C-38.64066406 164.27167969 -39.28132813 163.54335937 -39.94140625 162.79296875 C-42.25274438 159.65709254 -43.63124955 156.50658394 -44.9375 152.875 C-45.31708862 151.83436401 -45.31708862 151.83436401 -45.7043457 150.77270508 C-59.59268056 111.62890059 -63.17857338 62.3965482 -48 23 C-46.3385005 19.86560364 -44.58925732 17.41311736 -42 15 C-41.12085938 14.17242187 -40.24171875 13.34484375 -39.3359375 12.4921875 C-35.75281599 9.55492213 -31.95045786 8.27507907 -27.5625 6.9375 C-26.78060303 6.6885498 -25.99870605 6.43959961 -25.19311523 6.18310547 C-5.50165846 0 -5.50165846 0 0 0 Z M-32.0625 48.1875 C-35.95767666 52.47975777 -36.91269268 57.43919972 -38 63 C-38.18046875 63.75796875 -38.3609375 64.5159375 -38.546875 65.296875 C-43.85128144 88.60411541 -45.44082207 116.12821137 -38 139 C-37.71898437 139.97453125 -37.43796875 140.9490625 -37.1484375 141.953125 C-33.48822054 151.65418783 -22.88880243 156.71418803 -14.01171875 160.97265625 C2.64189336 168.468494 20.93603054 172.70171537 39 175 C39.7108374 175.09498779 40.4216748 175.18997559 41.15405273 175.2878418 C49.26657679 176.24561172 57.40617675 176.20044075 65.5625 176.1875 C66.32343964 176.18656342 67.08437927 176.18562683 67.86837769 176.18466187 C78.70708998 176.15570538 89.30103017 175.94183946 100 174 C100.91974609 173.84402344 101.83949219 173.68804687 102.78710938 173.52734375 C139.33708373 167.37291361 139.33708373 167.37291361 169 147 C175.81629292 133.73729051 176.43822641 119.78115511 176.4375 105.1875 C176.43923218 104.36161377 176.44096436 103.53572754 176.44274902 102.68481445 C176.43201589 90.95631957 175.67859364 79.57084033 173.75 68 C173.54560303 66.76789795 173.34120605 65.5357959 173.13061523 64.26635742 C171.565359 55.90078131 169.76038106 50.47480293 162.5625 45.4375 C135.40381861 27.43743963 97.02319379 28.81076043 65.875 28.8125 C64.81641785 28.81159363 63.75783569 28.81068726 62.66717529 28.80975342 C12.44213734 28.14297769 12.44213734 28.14297769 -32.0625 48.1875 Z " fill="#E4EFF2" transform="translate(177,52)"/>
<path d="M0 0 C1.51782988 -0.00269866 3.03565806 -0.00658419 4.55348206 -0.01159668 C7.72665958 -0.01747602 10.89938504 -0.00898117 14.07250977 0.00976562 C18.12207072 0.03253538 22.17056991 0.01943571 26.22009182 -0.00452423 C29.35244106 -0.01904173 32.48454241 -0.01434887 35.61689949 -0.00401306 C37.10910228 -0.00136114 38.60132822 -0.00456104 40.09350395 -0.01393127 C48.08386582 -0.05309885 54.69114814 -0.07040892 61.50390625 4.53125 C66.22099623 9.29803865 67.30994402 13.86825477 67.50390625 20.53125 C67.29424498 24.97153759 66.82701679 29.36643276 66.31640625 33.78125 C66.10830322 35.62058105 66.10830322 35.62058105 65.89599609 37.49707031 C64.99599669 45.12374662 63.96985878 52.71902153 62.62890625 60.28125 C62.49202393 61.10657227 62.3551416 61.93189453 62.21411133 62.78222656 C60.68224469 70.76810443 56.76530906 77.28914532 50.50390625 82.53125 C44.11392678 86.2472302 38.84282498 87.68844938 31.43359375 87.69921875 C30.63792999 87.70254715 29.84226624 87.70587555 29.02249146 87.70930481 C27.33628924 87.71436789 25.650077 87.71671333 23.96386719 87.71655273 C21.4093319 87.71872414 18.85523928 87.73684417 16.30078125 87.75585938 C14.65755355 87.75879661 13.01432381 87.7607792 11.37109375 87.76171875 C10.61762665 87.76890427 9.86415955 87.77608978 9.08786011 87.78349304 C-1.56282849 87.73862995 -8.58801299 85.27893038 -16.22265625 77.8515625 C-21.37245195 71.94071325 -22.2410278 65.07006897 -23.49609375 57.53125 C-23.67785156 56.63535156 -23.85960937 55.73945313 -24.046875 54.81640625 C-31.39537505 18.41047851 -31.39537505 18.41047851 -25.43359375 7.78125 C-19.33694126 -1.00449837 -9.51194876 -0.05963742 0 0 Z " fill="#7CD0E2" transform="translate(225.49609375,277.46875)"/>
<path d="M0 0 C1.62890167 0.00140488 1.62890167 0.00140488 3.29071045 0.00283813 C76.67893834 0.14009707 76.67893834 0.14009707 100.125 19.1875 C103.96437711 23.10269964 105.09050396 26.94129182 106.125 32.1875 C106.29805664 32.9393457 106.47111328 33.69119141 106.64941406 34.46582031 C109.75861968 48.23198115 110.53355161 61.82004504 110.5625 75.875 C110.57135223 77.09234833 110.57135223 77.09234833 110.5803833 78.33428955 C110.6298013 88.35854075 109.94280499 97.48656591 107.125 107.1875 C106.83584717 108.2192334 106.54669434 109.2509668 106.2487793 110.31396484 C103.50992438 119.59293826 98.36248185 123.54803141 90.06982422 128.11132812 C62.47379167 142.49479877 31.28462254 147.42834043 0.5 147.375 C-0.63149979 147.37309662 -0.63149979 147.37309662 -1.78585815 147.37115479 C-31.65875157 147.27538931 -62.56994008 142.19196665 -88.875 127.1875 C-89.7928125 126.66542969 -90.710625 126.14335937 -91.65625 125.60546875 C-100.7822341 119.87488756 -103.57526546 112.62359362 -106.1875 102.4375 C-110.38038258 83.88197877 -108.96407532 62.87916756 -105.875 44.1875 C-105.6896167 42.97151123 -105.6896167 42.97151123 -105.50048828 41.73095703 C-102.71522915 23.95593964 -102.71522915 23.95593964 -96.96484375 18.6796875 C-84.15505847 9.53326138 -69.18567702 5.77178625 -53.875 3.1875 C-52.14636719 2.89552734 -52.14636719 2.89552734 -50.3828125 2.59765625 C-33.66789257 0.00134783 -16.87295371 -0.01876162 0 0 Z M-44.875 11.1875 C-45.67599121 11.28933594 -46.47698242 11.39117187 -47.30224609 11.49609375 C-72.43621101 14.69309333 -72.43621101 14.69309333 -92.875 28.1875 C-100.41132995 48.04014695 -100.49875524 73.88059127 -97.625 94.6875 C-97.51591309 95.5007373 -97.40682617 96.31397461 -97.29443359 97.15185547 C-96.15542394 104.42629065 -94.26408937 111.58098245 -88.375 116.375 C-77.71885563 123.4595795 -66.03370047 127.53562178 -53.875 131.1875 C-53.22047852 131.38617676 -52.56595703 131.58485352 -51.89160156 131.78955078 C-21.10582666 140.91037523 11.86644864 140.12434543 43.125 134.1875 C43.94242676 134.03796875 44.75985352 133.8884375 45.60205078 133.734375 C61.09128165 130.82446079 78.37260337 125.65518841 91.125 116.1875 C92.07375 115.48625 93.0225 114.785 94 114.0625 C106.51092157 97.13595905 102.2397528 66.26373729 99.39013672 46.87646484 C99.10972805 45.10012176 98.82088138 43.32508162 98.52197266 41.55175781 C98.17321398 39.47464894 97.87002216 37.38999664 97.57421875 35.3046875 C96.63293397 30.09240309 95.60028772 26.94126946 91.25 23.75 C81.12351652 18.18779583 70.42385686 15.25612038 59.125 13.1875 C58.20847656 13.00445312 57.29195312 12.82140625 56.34765625 12.6328125 C38.51770361 9.30728331 20.33328066 8.83883991 2.25 8.9375 C0.74777893 8.94165421 0.74777893 8.94165421 -0.78479004 8.94589233 C-15.55584772 8.99370892 -30.2106762 9.24782214 -44.875 11.1875 Z " fill="#121B2B" transform="translate(242.875,80.8125)"/>
<path d="M0 0 C3.78184871 1.1243334 7.21943567 2.58257788 10.75 4.3125 C39.54972766 17.45261801 77.15360608 18.57656915 108 13 C108.73605469 12.87641113 109.47210938 12.75282227 110.23046875 12.62548828 C121.80891225 10.65188996 132.39422927 7.32135099 143.20605469 2.75683594 C145.4583793 1.80661733 147.72728083 0.90017505 150 0 C143.54650708 17.74710552 128.24658287 31.74034814 111.5625 39.8125 C93.74364974 47.3302339 72.90847031 49.9167642 54 45 C52.97777344 44.74347656 51.95554688 44.48695313 50.90234375 44.22265625 C30.24462444 38.48576877 15.35304405 25.81641072 4 8 C2.55178306 5.36765275 1.2632996 2.72872714 0 0 Z " fill="#44C4E2" transform="translate(170,368)"/>
<path d="M0 0 C3.78145196 0.96858243 6.00296918 3.6113664 8.75 6.2734375 C16.25133055 13.23050747 24.5717778 17.48932275 34.2265625 20.5703125 C36.7015625 21.5603125 36.7015625 21.5603125 39.2265625 22.5703125 C39.2265625 38.7403125 39.2265625 54.9103125 39.2265625 71.5703125 C34.33594612 69.94010704 30.09477075 68.17957339 25.5390625 65.8828125 C24.83644287 65.52904541 24.13382324 65.17527832 23.40991211 64.81079102 C9.08076693 57.48656905 -11.54631499 45.64563836 -18.7734375 30.5703125 C-20.3410391 23.24667378 -18.04828575 16.120009 -14.7734375 9.5703125 C-10.99949113 4.07197811 -7.15087564 -0.18202229 0 0 Z " fill="#E8F3F6" transform="translate(93.7734375,206.4296875)"/>
<path d="M0 0 C5.72110791 1.92921081 9.7072233 6.59044818 12.453125 11.8046875 C13.73670403 14.76766288 14.70756604 17.44506846 15.015625 20.6796875 C15.10199219 21.42089844 15.18835938 22.16210938 15.27734375 22.92578125 C15.68989973 28.94909857 14.70790164 32.25227292 10.765625 36.82421875 C9.899375 37.74267578 9.899375 37.74267578 9.015625 38.6796875 C8.520625 39.24042969 8.025625 39.80117187 7.515625 40.37890625 C-2.23619463 50.83773281 -14.44060717 58.1064087 -26.984375 64.6796875 C-27.89823975 65.16042725 -27.89823975 65.16042725 -28.83056641 65.65087891 C-38.45471146 70.6796875 -38.45471146 70.6796875 -40.984375 70.6796875 C-40.984375 54.5096875 -40.984375 38.3396875 -40.984375 21.6796875 C-36.364375 20.0296875 -31.744375 18.3796875 -26.984375 16.6796875 C-23.12939935 14.61502262 -23.12939935 14.61502262 -20.109375 12.3046875 C-19.04589844 11.53511719 -17.98242188 10.76554688 -16.88671875 9.97265625 C-14.33861707 7.95955304 -12.01051674 5.86465412 -9.671875 3.6171875 C-6.54364602 0.81686512 -4.25213665 -0.41851739 0 0 Z " fill="#E8F3F5" transform="translate(397.984375,206.3203125)"/>
<path d="M0 0 C1.51782988 -0.00269866 3.03565806 -0.00658419 4.55348206 -0.01159668 C7.72665958 -0.01747602 10.89938504 -0.00898117 14.07250977 0.00976562 C18.12207072 0.03253538 22.17056991 0.01943571 26.22009182 -0.00452423 C29.35244106 -0.01904173 32.48454241 -0.01434887 35.61689949 -0.00401306 C37.10910228 -0.00136114 38.60132822 -0.00456104 40.09350395 -0.01393127 C48.08386582 -0.05309885 54.69114814 -0.07040892 61.50390625 4.53125 C66.22099623 9.29803865 67.30994402 13.86825477 67.50390625 20.53125 C67.29424498 24.97153759 66.82701679 29.36643276 66.31640625 33.78125 C66.10830322 35.62058105 66.10830322 35.62058105 65.89599609 37.49707031 C64.99599669 45.12374662 63.96985878 52.71902153 62.62890625 60.28125 C62.49202393 61.10657227 62.3551416 61.93189453 62.21411133 62.78222656 C60.68224469 70.76810443 56.76530906 77.28914532 50.50390625 82.53125 C44.11392678 86.2472302 38.84282498 87.68844938 31.43359375 87.69921875 C30.63792999 87.70254715 29.84226624 87.70587555 29.02249146 87.70930481 C27.33628924 87.71436789 25.650077 87.71671333 23.96386719 87.71655273 C21.4093319 87.71872414 18.85523928 87.73684417 16.30078125 87.75585938 C14.65755355 87.75879661 13.01432381 87.7607792 11.37109375 87.76171875 C10.61762665 87.76890427 9.86415955 87.77608978 9.08786011 87.78349304 C-1.56282849 87.73862995 -8.58801299 85.27893038 -16.22265625 77.8515625 C-21.37245195 71.94071325 -22.2410278 65.07006897 -23.49609375 57.53125 C-23.67785156 56.63535156 -23.85960937 55.73945313 -24.046875 54.81640625 C-31.39537505 18.41047851 -31.39537505 18.41047851 -25.43359375 7.78125 C-19.33694126 -1.00449837 -9.51194876 -0.05963742 0 0 Z M-19.87890625 13.24609375 C-20.85562167 16.8624135 -20.59444512 20.39510983 -20.37109375 24.09375 C-20.32251221 24.95274902 -20.27393066 25.81174805 -20.22387695 26.69677734 C-19.71002247 34.39305486 -18.76160792 42.02057821 -17.68359375 49.65625 C-17.53067871 50.7810376 -17.37776367 51.9058252 -17.22021484 53.06469727 C-15.28353971 65.9797947 -15.28353971 65.9797947 -7.62109375 76.03125 C-0.21071878 81.19151111 7.78609442 80.90375555 16.45141602 80.90185547 C18.66827659 80.90620462 20.88310333 80.9425039 23.09960938 80.98046875 C32.01390658 81.05189721 41.03080417 80.75779161 48.3894043 75.07519531 C55.87509747 67.33707365 56.26900473 55.50842556 57.43920898 45.33691406 C57.69031423 43.16569236 57.95838115 40.99705215 58.22851562 38.828125 C60.67574331 24.7116113 60.67574331 24.7116113 57.75390625 11.40625 C53.60045069 7.94503703 50.68171839 7.27789166 45.27001953 7.24072266 C44.00835968 7.22796295 42.74669983 7.21520325 41.44680786 7.20205688 C40.07261305 7.19899914 38.69841618 7.19677143 37.32421875 7.1953125 C35.90941229 7.18888218 34.49460716 7.18215364 33.07980347 7.17514038 C30.11583373 7.16317541 27.15198046 7.15945872 24.18798828 7.16064453 C20.39939507 7.16084764 16.61155268 7.13355151 12.82313728 7.09910011 C9.90107833 7.07680607 6.97919933 7.07280774 4.05706406 7.07386398 C2.66087126 7.07151155 1.26467324 7.06270813 -0.13143539 7.04719925 C-2.08866381 7.02749325 -4.0461134 7.03591162 -6.00341797 7.04541016 C-7.1149826 7.04256012 -8.22654724 7.03971008 -9.37179565 7.03677368 C-13.77882389 7.7342651 -17.0698777 9.76258095 -19.87890625 13.24609375 Z " fill="#121D2D" transform="translate(225.49609375,277.46875)"/>
<path d="M0 0 C0.66 0 1.32 0 2 0 C2.08636719 0.95777344 2.17273438 1.91554687 2.26171875 2.90234375 C4.28239146 23.48584348 4.28239146 23.48584348 14 41 C17.48394046 43.6987452 21.14254022 45.87814631 25 48 C26.37865234 48.77150391 26.37865234 48.77150391 27.78515625 49.55859375 C46.49793843 59.46838899 68.06437305 64.60894566 89 67 C89.96035156 67.11085938 90.92070312 67.22171875 91.91015625 67.3359375 C112.68342492 69.24079733 133.45198293 68.42050831 154 65 C155.93746094 64.70996094 155.93746094 64.70996094 157.9140625 64.4140625 C176.97290694 61.16011345 207.03761411 53.69426194 219.28515625 37.27734375 C225.38113702 26.36020709 226.79207535 13.23818398 228 1 C230.80997048 4.37643668 231.51609816 6.60294021 231.34765625 11.0703125 C230.18234161 20.89037966 227.41402349 30.43187179 224 39.6875 C223.7632959 40.33404541 223.5265918 40.98059082 223.28271484 41.64672852 C220.03569006 50.05487167 215.85992465 54.85608557 208 59 C204.03493902 60.67790994 200.01864888 62.08848503 195.91552734 63.39111328 C194.02763819 63.99121468 192.14845174 64.61847528 190.26953125 65.24609375 C181.4805179 68.08375258 172.5738741 69.99029218 163.5 71.6875 C162.42145752 71.88988281 161.34291504 72.09226562 160.23168945 72.30078125 C145.24013887 74.99286665 130.4768894 76.41478102 115.25 76.375 C114.45484985 76.37445618 113.65969971 76.37391235 112.8404541 76.37335205 C83.1224322 76.28091307 36.69159986 73.72378103 13.1875 52.9375 C3.50810876 42.32870586 -1.33320422 20.33533464 -2.25 6.125 C-2 3 -2 3 0 0 Z " fill="#C3CFE6" transform="translate(129,163)"/>
<path d="M0 0 C1.05658813 -0.00492462 1.05658813 -0.00492462 2.13452148 -0.00994873 C17.85423134 -0.03331754 33.18955091 1.71468355 48.6875 4.3125 C50.05346313 4.51214355 50.05346313 4.51214355 51.44702148 4.71582031 C55.0908241 5.34263216 57.21411617 5.75756292 59.66015625 8.625 C60.19962891 9.9553125 60.19962891 9.9553125 60.75 11.3125 C61.13285156 12.199375 61.51570313 13.08625 61.91015625 14 C62.6875 16.3125 62.6875 16.3125 62.6875 18.3125 C59.63496481 19.20086442 56.91472867 19.43809819 53.74020386 19.43948364 C52.74472534 19.44230347 51.74924683 19.44512329 50.72360229 19.44802856 C49.63773834 19.44600433 48.55187439 19.4439801 47.43310547 19.44189453 C46.28481262 19.44364685 45.13651978 19.44539917 43.95343018 19.44720459 C40.15383396 19.45160979 36.3542842 19.44869015 32.5546875 19.4453125 C29.91960644 19.44598583 27.28452543 19.4469561 24.64944458 19.44821167 C19.12648005 19.45003016 13.6035289 19.44763492 8.08056641 19.44287109 C1.69122907 19.4374237 -4.69807638 19.43919587 -11.08741295 19.4446975 C-17.23195388 19.4497769 -23.37648064 19.44924633 -29.5210228 19.44631577 C-32.13740926 19.44564687 -34.75379652 19.44647361 -37.37018204 19.44879532 C-41.01910844 19.45132293 -44.66797277 19.44747991 -48.31689453 19.44189453 C-49.40680695 19.44391876 -50.49671936 19.44594299 -51.61965942 19.44802856 C-52.60949829 19.44520874 -53.59933716 19.44238892 -54.61917114 19.43948364 C-55.48230486 19.43910662 -56.34543858 19.43872959 -57.23472786 19.43834114 C-59.3125 19.3125 -59.3125 19.3125 -61.3125 18.3125 C-60.9116428 16.89127902 -60.49099837 15.47563294 -60.0625 14.0625 C-59.83046875 13.27359375 -59.5984375 12.4846875 -59.359375 11.671875 C-58.07792593 8.78383307 -56.73634881 7.34428587 -54.3125 5.3125 C-51.5703125 4.50708008 -51.5703125 4.50708008 -48.4375 4.08203125 C-47.28636719 3.91896484 -46.13523438 3.75589844 -44.94921875 3.58789062 C-43.74910156 3.43513672 -42.54898438 3.28238281 -41.3125 3.125 C-39.55873047 2.8784668 -39.55873047 2.8784668 -37.76953125 2.62695312 C-25.17829729 0.90107366 -12.70957935 0.04903272 0 0 Z " fill="#44C3E2" transform="translate(243.3125,43.6875)"/>
<path d="M0 0 C12.51462074 5.39229619 19.39141953 17.36877656 25.17578125 28.9375 C25.74279156 35.85502577 25.74279156 35.85502577 23.80078125 39.5625 C16.84600443 45.85491712 6.73435721 51.9375 -2.82421875 51.9375 C-2.98277344 51.04289062 -3.14132812 50.14828125 -3.3046875 49.2265625 C-6.09739267 34.75386941 -11.52161981 26.172467 -21.82421875 15.9375 C-18.87595443 12.55468425 -15.87517011 9.22802927 -12.82421875 5.9375 C-12.20546875 5.26589844 -11.58671875 4.59429687 -10.94921875 3.90234375 C-7.5710579 0.59456125 -4.97226155 -1.0813462 0 0 Z " fill="#7ACFE1" transform="translate(424.82421875,182.0625)"/>
<path d="M0 0 C7.05143507 2.44726276 12.37806801 10.14004374 16.9921875 15.69140625 C15.9403125 16.71234375 15.9403125 16.71234375 14.8671875 17.75390625 C13.90383943 18.72813961 12.94589794 19.70773632 11.9921875 20.69140625 C11.49976563 21.19929688 11.00734375 21.7071875 10.5 22.23046875 C2.87165437 30.57026631 -0.85863581 40.58269828 -2.0078125 51.69140625 C-7.34426849 51.17343606 -11.22814255 49.9080709 -16.0703125 47.44140625 C-17.23691406 46.85875 -18.40351562 46.27609375 -19.60546875 45.67578125 C-27.94865529 40.80972067 -27.94865529 40.80972067 -30.0078125 36.69140625 C-31.00646948 27.37060777 -26.81766924 20.83674417 -21.3203125 13.56640625 C-16.18489612 7.37456136 -8.73649917 -1.43191584 0 0 Z " fill="#7ACFE1" transform="translate(68.0078125,182.30859375)"/>
<path d="M0 0 C5.75 1.75 5.75 1.75 8 4 C7.34 4 6.68 4 6 4 C19.95846737 20.87583193 38.01580717 32.03335162 60 35 C64.91997565 35.29800833 69.82209267 35.32486925 74.75 35.3125 C76.65265625 35.33666992 76.65265625 35.33666992 78.59375 35.36132812 C90.75571991 35.36753321 102.12405592 33.4705865 113.1875 28.3125 C113.94651611 27.96654785 114.70553223 27.6205957 115.48754883 27.26416016 C121.91103369 24.23804584 127.52627513 20.5299792 133 16 C133.68578125 15.46375 134.3715625 14.9275 135.078125 14.375 C138.89482685 11.29598002 141.49160779 8.21409891 144 4 C143.01 3.505 143.01 3.505 142 3 C147.75 0 147.75 0 150 0 C143.54650708 17.74710552 128.24658287 31.74034814 111.5625 39.8125 C93.74364974 47.3302339 72.90847031 49.9167642 54 45 C52.97777344 44.74347656 51.95554688 44.48695313 50.90234375 44.22265625 C30.24462444 38.48576877 15.35304405 25.81641072 4 8 C2.55178306 5.36765275 1.2632996 2.72872714 0 0 Z " fill="#25BACB" transform="translate(170,368)"/>
<path d="M0 0 C1.93359375 -0.01933594 1.93359375 -0.01933594 3.90625 -0.0390625 C8.27453476 0.76812055 9.70844705 2.26055372 12.5 5.625 C12.83 5.955 13.16 6.285 13.5 6.625 C13.63819268 9.16012084 13.71311646 11.66606135 13.73828125 14.203125 C13.746353 14.96671326 13.75442474 15.73030151 13.76274109 16.51702881 C13.77659917 18.13779418 13.78731359 19.75858894 13.79516602 21.37939453 C13.81233438 23.85115583 13.85619668 26.3215641 13.90039062 28.79296875 C13.91052128 30.36717765 13.91903622 31.94139795 13.92578125 33.515625 C13.94328934 34.25226379 13.96079742 34.98890259 13.97883606 35.74786377 C13.96364289 39.36817867 13.6259067 41.42770772 11.66088867 44.50683594 C7.97989858 48.11504631 5.74813841 48.93634417 0.6875 49 C-4.73368803 48.92124182 -7.51758932 48.28451252 -11.5 44.625 C-13.92843172 39.76813655 -12.81257287 32.34170825 -12.85009766 26.94067383 C-12.86664961 25.19379344 -12.89392995 23.44698057 -12.93212891 21.70043945 C-12.98698252 19.17884274 -13.00878326 16.65883225 -13.0234375 14.13671875 C-13.04610687 13.35946945 -13.06877625 12.58222015 -13.09213257 11.78141785 C-13.07649236 7.75378738 -12.68086617 5.85933782 -10.19189453 2.63452148 C-6.6503762 -0.00925118 -4.38507695 -0.04385077 0 0 Z " fill="#88D1DF" transform="translate(199.5,124.375)"/>
<path d="M0 0 C1.93359375 -0.01933594 1.93359375 -0.01933594 3.90625 -0.0390625 C8.45071945 0.80067642 9.68302069 1.99706311 12.5 5.625 C12.99926958 8.6228783 13.20348428 11.04052932 13.1640625 14.03125 C13.16884613 14.83357056 13.17362976 15.63589111 13.17855835 16.46252441 C13.18195067 18.15358448 13.17279483 19.84471071 13.15185547 21.53564453 C13.12507567 24.11770444 13.15162096 26.69541834 13.18359375 29.27734375 C13.18028953 30.92448872 13.17388302 32.57163099 13.1640625 34.21875 C13.17418365 34.98658813 13.18430481 35.75442627 13.19473267 36.54553223 C13.10657969 40.5964007 12.67649045 42.40860396 10.08349609 45.58789062 C5.18388924 49.45127369 0.58780141 49.25950325 -5.5 48.625 C-8.13566309 47.59719316 -9.36979973 46.58702657 -11.5 44.625 C-13.41942504 38.86672488 -12.80672118 32.33353405 -12.85009766 26.29248047 C-12.86666552 24.60093434 -12.8939669 22.90945847 -12.93212891 21.21826172 C-12.98698252 18.77274472 -13.00878035 16.32886231 -13.0234375 13.8828125 C-13.04610687 13.13057404 -13.06877625 12.37833557 -13.09213257 11.603302 C-13.0762117 7.63326655 -12.65337436 5.82266376 -10.19189453 2.65039062 C-6.65125552 -0.01359824 -4.39560611 -0.04395606 0 0 Z " fill="#89D3E0" transform="translate(290.5,124.375)"/>
<path d="M0 0 C-0.35503494 5.91724894 -1.7060666 8.89275936 -6 13 C-16.42153522 19.16784738 -31.03130162 17.15774759 -42.76318359 17.13037109 C-45.4945226 17.12501075 -48.22569722 17.13034515 -50.95703125 17.13671875 C-79.44918963 17.1533993 -79.44918963 17.1533993 -87 10 C-89.17085785 6.64503787 -90 4.96849614 -90 1 C-88.08329274 1.14529878 -86.16663703 1.29127769 -84.25 1.4375 C-82.54521481 1.56721192 -80.84041541 1.69674414 -79.13549805 1.82470703 C-77.59915434 1.95081824 -76.06421986 2.09454941 -74.53051758 2.24951172 C-65.08639865 3.15771062 -55.66694997 3.23819552 -46.1875 3.25 C-44.90147888 3.25350464 -44.90147888 3.25350464 -43.58947754 3.25708008 C-30.47393569 3.2705451 -17.77261723 2.59987136 -4.83300781 0.27539062 C-3 0 -3 0 0 0 Z " fill="#25BBCC" transform="translate(290,248)"/>
<path d="M0 0 C1.78677658 -0.00285507 1.78677658 -0.00285507 3.60964966 -0.00576782 C25.16501458 -0.00187305 47.4180164 0.02273015 68.5625 4.6875 C69.59052734 4.90623779 70.61855469 5.12497559 71.67773438 5.3503418 C83.11359621 7.88810585 93.27868855 11.08609317 101.125 20.375 C102.3671875 23.125 102.3671875 23.125 103.125 25.375 C102.35800781 24.86710937 101.59101563 24.35921875 100.80078125 23.8359375 C90.44606457 17.41384841 79.90759397 14.24966901 68.125 11.375 C66.88234375 11.05660156 65.6396875 10.73820312 64.359375 10.41015625 C43.99334237 5.73712821 22.76651319 6.19271258 2 6.1875 C0.41158295 6.18600449 0.41158295 6.18600449 -1.20892334 6.18447876 C-51.9329232 5.8029435 -51.9329232 5.8029435 -96.875 26.375 C-95.8320878 20.52165529 -91.57285637 16.51487755 -87.04296875 12.921875 C-63.00928284 -2.05770044 -27.09348003 0.00463986 0 0 Z " fill="#BECAE1" transform="translate(240.875,75.625)"/>
<path d="M0 0 C1.89237648 -0.01902626 1.89237648 -0.01902626 3.82298279 -0.03843689 C5.19196741 -0.03638523 6.56095091 -0.03339703 7.92993164 -0.02954102 C9.34331004 -0.03410568 10.75668622 -0.0394121 12.1700592 -0.04542542 C15.12811313 -0.05434564 18.08589692 -0.05194622 21.04394531 -0.04199219 C24.82470563 -0.03050608 28.60453144 -0.05071265 32.38516903 -0.07990932 C35.30296194 -0.09830351 38.22053224 -0.09797253 41.13836861 -0.0922718 C42.53175733 -0.09211897 43.92516151 -0.09813221 45.3184948 -0.11056328 C58.88859285 -0.21458059 58.88859285 -0.21458059 63.65258789 4.40405273 C68.76448444 12.07189755 65.24780625 24.89002452 64.16333008 33.74926758 C63.90311341 35.89970982 63.66410364 38.05184237 63.42602539 40.20483398 C60.90072626 61.88696373 60.90072626 61.88696373 54.46508789 67.96655273 C46.21550971 73.863561 37.07817481 73.87938678 27.31396484 73.79516602 C25.090931 73.77905884 22.86970778 73.79508974 20.64672852 73.81420898 C11.48651907 73.82788132 3.1393349 73.57634645 -4.04833984 67.01757812 C-9.4597778 60.29624878 -10.41423839 50.7772586 -11.53491211 42.52905273 C-11.69999268 41.35391113 -11.86507324 40.17876953 -12.03515625 38.96801758 C-13.01772456 31.67134539 -13.8282806 24.37811767 -14.28491211 17.02905273 C-14.34251709 16.22226074 -14.40012207 15.41546875 -14.45947266 14.58422852 C-14.66968735 9.94951889 -14.38041021 6.99146984 -11.34741211 3.40405273 C-7.47583497 0.59395411 -4.74937863 0.02316475 0 0 Z M-10.34741211 6.40405273 C-10.97684801 8.64509249 -10.97684801 8.64509249 -10.70678711 11.03686523 C-10.66102539 11.91761719 -10.61526367 12.79836914 -10.56811523 13.70581055 C-10.4952832 14.59623047 -10.42245117 15.48665039 -10.34741211 16.40405273 C-10.30036133 17.21455078 -10.25331055 18.02504883 -10.20483398 18.86010742 C-9.57089394 28.76642362 -8.32763711 38.5916374 -6.47241211 48.34155273 C-6.32320312 49.16316895 -6.17399414 49.98478516 -6.02026367 50.83129883 C-4.7142354 57.25861384 -2.83280457 61.70559448 2.77929688 65.54077148 C6.84838505 67.77389852 10.35862236 67.97085954 14.92993164 67.90014648 C15.70011124 67.90160172 16.47029083 67.90305695 17.2638092 67.90455627 C18.88326827 67.90290564 20.50274441 67.89143852 22.12207031 67.87060547 C24.58019764 67.84166916 27.03616031 67.85000982 29.49438477 67.86303711 C31.07707739 67.85679748 32.65976328 67.84840478 34.24243164 67.83764648 C34.96663803 67.84058212 35.69084442 67.84351776 36.43699646 67.84654236 C42.9053975 67.72892148 48.36404716 66.28574178 53.46508789 62.09155273 C62.70497263 49.26696355 61.88882008 23.46635361 62.14868164 8.13452148 C61.91037399 5.34937412 61.91037399 5.34937412 60.00645447 3.75865173 C56.99806728 2.02739036 54.95871262 2.01708909 51.49462891 2 C50.24976212 1.98731583 49.00489532 1.97463165 47.7223053 1.96156311 C46.36703322 1.9636147 45.01176228 1.96660286 43.65649414 1.97045898 C42.26171108 1.96589608 40.86693026 1.96059017 39.47215271 1.95457458 C36.55100361 1.94564691 33.63012794 1.9480622 30.70898438 1.95800781 C26.97181176 1.96949398 23.23558454 1.94929118 19.49853611 1.92009068 C16.61852558 1.90171309 13.73874092 1.90202418 10.85868645 1.9077282 C9.48121757 1.90788124 8.10373322 1.90185066 6.72632027 1.88943672 C4.79758033 1.87450323 2.86868467 1.88784602 0.93994141 1.90234375 C-0.15607895 1.90250992 -1.2520993 1.90267609 -2.3813324 1.90284729 C-6.04164388 2.52136339 -7.72702976 3.82179999 -10.34741211 6.40405273 Z " fill="#43BBD9" transform="translate(219.347412109375,284.595947265625)"/>
<path d="M0 0 C1.21236328 0.02707031 1.21236328 0.02707031 2.44921875 0.0546875 C3.37154297 0.08949219 3.37154297 0.08949219 4.3125 0.125 C4.29678955 1.05957031 4.2810791 1.99414062 4.26489258 2.95703125 C4.00134243 21.08750201 4.11090046 38.73165302 6.94873047 56.69628906 C7.51765503 60.49471962 7.91348762 64.30532809 8.3125 68.125 C6.70469991 67.9228938 5.10110345 67.68717135 3.5 67.4375 C2.60667969 67.30988281 1.71335937 67.18226563 0.79296875 67.05078125 C-1.6875 66.125 -1.6875 66.125 -3.37890625 64.0390625 C-4.96482211 60.5074409 -5.94067593 56.94331812 -6.8125 53.1875 C-6.98136719 52.49720703 -7.15023437 51.80691406 -7.32421875 51.09570312 C-9.40895164 42.43667477 -9.87379256 34.16082942 -9.87280273 25.27514648 C-9.87499712 23.06539872 -9.8932108 20.85614458 -9.91210938 18.64648438 C-9.91504253 17.23177253 -9.91702785 15.81705833 -9.91796875 14.40234375 C-9.92207764 13.12609131 -9.92618652 11.84983887 -9.93041992 10.53491211 C-9.69426601 7.21997573 -9.26067744 5.03529642 -7.6875 2.125 C-4.48369983 -0.01086678 -3.66810033 -0.10632175 0 0 Z " fill="#44C2E1" transform="translate(107.6875,114.875)"/>
<path d="M0 0 C1.28003906 0.13019531 2.56007813 0.26039062 3.87890625 0.39453125 C4.95893921 0.50438354 4.95893921 0.50438354 6.06079102 0.61645508 C8 1 8 1 9.9375 2.6875 C17.6755801 19.52920374 11.20269845 45.75118048 5.96484375 62.55859375 C5 65 5 65 3 67 C0.6171875 67.4140625 0.6171875 67.4140625 -2.125 67.625 C-3.49011719 67.73714844 -3.49011719 67.73714844 -4.8828125 67.8515625 C-5.58148438 67.90054688 -6.28015625 67.94953125 -7 68 C-6.48517174 62.95468302 -5.61776546 58.0868795 -4.5625 53.125 C-0.96344059 35.57219229 -0.48939768 17.86898368 0 0 Z " fill="#43C0DF" transform="translate(377,124)"/>
<path d="M0 0 C-0.7425 0.70125 -1.485 1.4025 -2.25 2.125 C-7.72704079 7.85099718 -10.40089384 12.72476094 -10.2734375 20.6015625 C-9.32825955 28.89212335 -2.99048854 35.68768036 3.18359375 40.8125 C14.29104232 48.98349665 25.50846957 53.65963248 39 56 C39.495 63.425 39.495 63.425 40 71 C35.10938362 69.36979454 30.86820825 67.60926089 26.3125 65.3125 C25.60988037 64.95873291 24.90726074 64.60496582 24.18334961 64.24047852 C9.85420443 56.91625655 -10.77287749 45.07532586 -18 30 C-19.5676016 22.67636128 -17.27484825 15.5496965 -14 9 C-10.31055516 3.62477749 -6.8941051 -0.37265433 0 0 Z " fill="#BECAE2" transform="translate(93,207)"/>
<path d="M0 0 C4.01317653 -0.50164707 6.63092746 -0.80519194 10.171875 1.27734375 C16.05332821 6.15275891 20.26146799 12.24541388 21 20 C21.08636719 20.74121094 21.17273438 21.48242188 21.26171875 22.24609375 C21.67427473 28.26941107 20.69227664 31.57258542 16.75 36.14453125 C15.88375 37.06298828 15.88375 37.06298828 15 38 C14.505 38.56074219 14.01 39.12148437 13.5 39.69921875 C3.74818037 50.15804531 -8.45623217 57.4267212 -21 64 C-21.91386475 64.48073975 -21.91386475 64.48073975 -22.84619141 64.97119141 C-32.47033646 70 -32.47033646 70 -35 70 C-34.67 59.77 -34.34 49.54 -34 39 C-33.67 39 -33.34 39 -33 39 C-33 44.61 -33 50.22 -33 56 C-15.71462067 50.75676827 1.49630764 44.22868774 11.16015625 27.82421875 C13.47715992 22.79147125 14.04137468 17.12412405 12.28125 11.84375 C9.57471445 5.99414091 5.91855537 2.63046905 0 0 Z " fill="#BDC9E0" transform="translate(392,207)"/>
<path d="M0 0 C0.763125 0.78375 1.52625 1.5675 2.3125 2.375 C5.55183927 5.53900579 7.50014432 7.24758498 12.00961304 7.26069641 C12.82268417 7.26778122 13.63575531 7.27486603 14.47346497 7.28216553 C15.36184555 7.27968811 16.25022614 7.27721069 17.16552734 7.2746582 C18.57328178 7.2823246 18.57328178 7.2823246 20.00947571 7.29014587 C23.11836081 7.3040695 26.22702488 7.30308286 29.3359375 7.30078125 C31.49443647 7.30466697 33.65293468 7.30900138 35.81143188 7.31376648 C40.33915687 7.32123488 44.86680388 7.32093314 49.39453125 7.31567383 C55.1975086 7.30988172 61.00016652 7.32680109 66.80309105 7.3500185 C71.26233792 7.36474987 75.72150779 7.36562829 80.18077469 7.36250877 C82.32020322 7.36302239 84.45963601 7.36826776 86.59904099 7.37832069 C89.59146621 7.39065451 92.58326837 7.38391129 95.57568359 7.37231445 C96.46001572 7.37995819 97.34434784 7.38760193 98.25547791 7.39547729 C104.43807427 7.34250784 107.74043796 6.13742355 112.3125 1.8125 C112.869375 1.214375 113.42625 0.61625 114 0 C114.83819158 1.62249941 115.6704116 3.24808497 116.5 4.875 C117.19609375 6.23238281 117.19609375 6.23238281 117.90625 7.6171875 C119 10 119 10 119 12 C115.94746481 12.88836442 113.22722867 13.12559819 110.05270386 13.12698364 C109.05722534 13.12980347 108.06174683 13.13262329 107.03610229 13.13552856 C105.95023834 13.13350433 104.86437439 13.1314801 103.74560547 13.12939453 C102.59731262 13.13114685 101.44901978 13.13289917 100.26593018 13.13470459 C96.46633396 13.13910979 92.6667842 13.13619015 88.8671875 13.1328125 C86.23210644 13.13348583 83.59702543 13.1344561 80.96194458 13.13571167 C75.43898005 13.13753016 69.9160289 13.13513492 64.39306641 13.13037109 C58.00372907 13.1249237 51.61442362 13.12669587 45.22508705 13.1321975 C39.08054612 13.1372769 32.93601936 13.13674633 26.7914772 13.13381577 C24.17509074 13.13314687 21.55870348 13.13397361 18.94231796 13.13629532 C15.29339156 13.13882293 11.64452723 13.13497991 7.99560547 13.12939453 C6.90569305 13.13141876 5.81578064 13.13344299 4.69284058 13.13552856 C3.70300171 13.13270874 2.71316284 13.12988892 1.69332886 13.12698364 C0.83019514 13.12660662 -0.03293858 13.12622959 -0.92222786 13.12584114 C-3 13 -3 13 -5 12 C-4.54738642 10.56068883 -4.08767021 9.12361001 -3.625 7.6875 C-3.24214844 6.48673828 -3.24214844 6.48673828 -2.8515625 5.26171875 C-2 3 -2 3 0 0 Z " fill="#77CADC" transform="translate(187,50)"/>
<path d="M0 0 C1.19688252 7.55472245 1.18372868 15.05057687 1.1875 22.6875 C1.19974609 23.97333984 1.21199219 25.25917969 1.22460938 26.58398438 C1.25731596 48.15943099 1.25731596 48.15943099 -2.82739258 53.29956055 C-4.97848036 54.98315718 -6.32709581 55.61815654 -9 56 C-9.29149741 51.32712602 -9.57592012 46.65388697 -9.85449219 41.98022461 C-9.9496723 40.3987335 -10.04660629 38.81734673 -10.14550781 37.23608398 C-10.83777543 26.14214224 -11.12744591 15.11523079 -11 4 C-2.25 0 -2.25 0 0 0 Z " fill="#43C0DE" transform="translate(348,231)"/>
<path d="M0 0 C4 1.33333333 8 2.66666667 12 4 C11.73511721 9.01310913 11.46851363 14.02612301 11.20043945 19.0390625 C11.10981813 20.73793168 11.0196353 22.43682431 10.92993164 24.13574219 C10.38591463 34.43255568 9.78321207 44.71810163 9 55 C2.84352664 52.61974838 2.84352664 52.61974838 1 50 C-2.90578221 34.23066543 -1.90735347 15.99191875 0 0 Z " fill="#42BFDD" transform="translate(142,232)"/>
<path d="M0 0 C0 3.3 0 6.6 0 10 C-0.99 10 -1.98 10 -3 10 C-4.79577082 11.51103229 -4.79577082 11.51103229 -6.6875 13.5 C-10.85505837 17.34539514 -15.15248357 19.927777 -20.1875 22.4375 C-21.20299927 22.94990234 -21.20299927 22.94990234 -22.23901367 23.47265625 C-26.15102908 25.36032238 -29.63211212 26.51769823 -34 27 C-33.58249366 21.95696293 -33.02302305 17.67824079 -31 13 C-30.64296842 11.0040943 -30.30707304 9.00419991 -30 7 C-25.56404241 5.82741384 -21.12599432 4.66294388 -16.6875 3.5 C-15.42486328 3.16613281 -14.16222656 2.83226562 -12.86132812 2.48828125 C-11.04858398 2.01455078 -11.04858398 2.01455078 -9.19921875 1.53125 C-7.52605591 1.09135742 -7.52605591 1.09135742 -5.8190918 0.64257812 C-3 0 -3 0 0 0 Z " fill="#BFCBE2" transform="translate(328,239)"/>
<path d="M0 0 C0.33 0.66 0.66 1.32 1 2 C0.690625 2.556875 0.38125 3.11375 0.0625 3.6875 C-1.52828351 7.14979353 -1.65004387 9.22974555 -1 13 C3.43819586 17.83145372 10.02615442 21.42613721 16.515625 22.36328125 C19.16378806 22.25985721 19.16378806 22.25985721 20.66015625 19.98828125 C21.12292969 19.10527344 21.58570312 18.22226563 22.0625 17.3125 C24.11825824 13.56751406 26.18844043 10.24410719 29 7 C29.99 7.33 30.98 7.66 32 8 C31.54109375 8.59425781 31.0821875 9.18851563 30.609375 9.80078125 C24.36405867 18.23720646 20.79229482 26.50209364 20 37 C14.66354401 36.48202981 10.77966995 35.21666465 5.9375 32.75 C4.77089844 32.16734375 3.60429688 31.5846875 2.40234375 30.984375 C-5.94084279 26.11831442 -5.94084279 26.11831442 -8 22 C-8.9351433 13.27199587 -5.29671878 6.77234424 0 0 Z " fill="#44C0DE" transform="translate(46,197)"/>
<path d="M0 0 C4.90319497 3.9951959 8.20510788 10.07989102 9.45703125 16.25390625 C9.62257237 19.48502374 9.12070884 21.76955586 7.625 24.625 C0.67022318 30.91741712 -9.44142404 37 -19 37 C-19.15855469 36.10539062 -19.31710937 35.21078125 -19.48046875 34.2890625 C-20.99086099 26.46172592 -22.97836978 19.88492681 -27 13 C-27.598125 11.96875 -28.19625 10.9375 -28.8125 9.875 C-29.4003125 8.946875 -29.4003125 8.946875 -30 8 C-26.66227007 9.40155759 -24.98250943 10.9509686 -22.875 13.875 C-22.37742187 14.55304688 -21.87984375 15.23109375 -21.3671875 15.9296875 C-20.06764939 17.8975595 -19.00360373 19.86853684 -18 22 C-10.13036531 21.70853205 -3.6064489 18.6064489 2 13 C2.37076135 8.18010242 1.75210338 4.48976491 0 0 Z " fill="#44C0DF" transform="translate(441,197)"/>
<path d="M0 0 C4.61849968 1.01029681 9.2239506 2.04482288 13.8125 3.18359375 C51.20300055 12.33079656 88.31448426 12.35537525 125.62548828 2.89404297 C126.6617334 2.63510254 127.69797852 2.37616211 128.765625 2.109375 C129.68118164 1.87186523 130.59673828 1.63435547 131.54003906 1.38964844 C134.06843581 0.98916003 135.59897318 1.18283792 138 2 C128.76623919 5.42406936 119.52228195 8.45850517 110 11 C108.12248047 11.51626953 108.12248047 11.51626953 106.20703125 12.04296875 C72.93376506 20.24216859 30.75233888 16.01199057 0 1 C0 0.67 0 0.34 0 0 Z " fill="#536894" transform="translate(174,198)"/>
<path d="M0 0 C3.94051098 0.6126859 7.76209141 1.39223762 11.6171875 2.41015625 C12.63554687 2.67763672 13.65390625 2.94511719 14.703125 3.22070312 C16.27320313 3.63739258 16.27320313 3.63739258 17.875 4.0625 C18.94492188 4.34416016 20.01484375 4.62582031 21.1171875 4.91601562 C23.74543507 5.60827726 26.37300335 6.30300924 29 7 C29.62832544 9.9962296 30.09847008 12.88623076 30.4375 15.9375 C30.8543958 19.48111429 31.74351049 22.64936131 33 26 C20.56436899 23.72305348 8.7171409 17.08765279 1 7 C0.34 6.67 -0.32 6.34 -1 6 C-0.67 4.02 -0.34 2.04 0 0 Z " fill="#C0CCE3" transform="translate(163,240)"/>
<path d="M0 0 C2 3 2 3 3.25 6.25 C6.07435348 12.89636417 10.40422153 17.17285615 16.875 20.2734375 C22.22230217 22.10174302 27.7305684 22.18292752 33.328125 22.23828125 C34.51169586 22.25038887 34.51169586 22.25038887 35.71917725 22.26274109 C37.38323819 22.27651412 39.04732659 22.2872663 40.71142578 22.29516602 C42.39673262 22.30667369 44.08200337 22.32710646 45.76708984 22.35668945 C59.35660776 22.61453786 59.35660776 22.61453786 72 18 C73.0825708 17.49545288 73.0825708 17.49545288 74.18701172 16.98071289 C76.57578866 15.68853447 76.96877185 14.48552427 78 12 C79.66666667 8.66666667 81.33333333 5.33333333 83 2 C83.33 2 83.66 2 84 2 C84.79917689 8.1936209 81.47163878 13.68742477 78.25 18.75 C72.10080385 24.89919615 64.83112866 28.19777906 56.08795166 28.27789307 C55.00027496 28.27182037 55.00027496 28.27182037 53.890625 28.265625 C53.1237738 28.26753845 52.35692261 28.2694519 51.5668335 28.27142334 C49.94982575 28.27277882 48.33280689 28.26912704 46.71582031 28.26074219 C44.2712283 28.25009248 41.82738101 28.26062839 39.3828125 28.2734375 C16.53516705 28.29706153 16.53516705 28.29706153 8 20 C3.09297597 14.62408256 0.19201321 9.51231037 -0.125 2.0625 C-0.08375 1.381875 -0.0425 0.70125 0 0 Z " fill="#BAC6DD" transform="translate(203,342)"/>
<path d="M0 0 C3.37158374 0.36647649 5.23962432 1.50290138 8.03125 3.33984375 C14.82900637 6.92594827 25.09160294 6.16477647 32.375 4.5 C35.84355214 3.46305081 35.84355214 3.46305081 38.5625 1.6875 C41.22974995 0.1015676 42.82559621 0.05112253 45.875 0.3125 C46.625 2.5625 46.625 2.5625 46.875 5.3125 C43.89548332 9.36464269 39.6251443 11.55960878 34.8203125 12.875 C22.44350945 14.71346411 9.31416073 14.89419052 -1.3515625 7.83984375 C-3.125 6.3125 -3.125 6.3125 -3.4375 3.6875 C-3.04011802 0.66739693 -2.99072136 0.43981196 0 0 Z " fill="#6BC7DA" transform="translate(222.125,180.6875)"/>
<path d="M0 0 C-1.72336298 4.06952544 -3.51984546 5.37340748 -7.49023438 7.11572266 C-17.29298806 10.56957225 -29.46950692 9.15439152 -39.76318359 9.13037109 C-42.4945226 9.12501075 -45.22569722 9.13034515 -47.95703125 9.13671875 C-76.48304724 9.15277011 -76.48304724 9.15277011 -83 3 C-83 2.34 -83 1.68 -83 1 C-76.5682098 1.8770623 -76.5682098 1.8770623 -73.74658203 2.48754883 C-64.09941335 4.45104412 -54.43879084 4.33724455 -44.63769531 4.31567383 C-41.63830174 4.31251401 -38.63989731 4.33603957 -35.640625 4.36132812 C-23.5096742 4.40037598 -11.55418706 0 0 0 Z " fill="#40BEDB" transform="translate(287,256)"/>
<path d="M0 0 C3.86285549 0.82775475 5.74867059 2.88684473 8.625 5.5625 C8.47095887 10.64585725 5.60431568 12.92004718 2.12109375 16.20703125 C1.62738281 16.65433594 1.13367187 17.10164063 0.625 17.5625 C-3.65859673 15.6769852 -5.52603592 13.20284299 -8.375 9.5625 C-6.83230705 4.93442115 -5.03556135 1.19263295 0 0 Z " fill="#79CCDF" transform="translate(26.375,167.4375)"/>
<path d="M0 0 C4.11970543 1.10528682 6.09067356 4.35775442 8.5625 7.6875 C7.1687718 12.12208973 4.95667765 14.56128374 1.5625 17.6875 C-1.52443704 16.32897869 -3.52391734 14.84239047 -5.75 12.3125 C-6.28238281 11.72726563 -6.81476563 11.14203125 -7.36328125 10.5390625 C-8.4375 8.6875 -8.4375 8.6875 -8.24609375 6.6015625 C-6.68040813 2.89535017 -3.77976372 1.0660872 0 0 Z " fill="#79CDDF" transform="translate(461.4375,167.3125)"/>
<path d="M0 0 C2.640625 0.359375 2.640625 0.359375 4.40625 2.40625 C4.89609375 3.29828125 5.3859375 4.1903125 5.890625 5.109375 C6.64085938 6.43195313 6.64085938 6.43195313 7.40625 7.78125 C9.27913996 11.69298219 9.76663091 14.79097304 9.703125 19.109375 C9.69410156 19.90859375 9.68507813 20.7078125 9.67578125 21.53125 C9.66417969 22.13453125 9.65257813 22.7378125 9.640625 23.359375 C6.58496039 20.39630629 3.66926672 17.34217339 0.828125 14.171875 C0.22355469 13.49769531 -0.38101563 12.82351562 -1.00390625 12.12890625 C-2.359375 10.359375 -2.359375 10.359375 -2.359375 8.359375 C-3.019375 8.359375 -3.679375 8.359375 -4.359375 8.359375 C-3.3606029 0.51187991 -3.3606029 0.51187991 0 0 Z " fill="#42BDDB" transform="translate(87.359375,174.640625)"/>
<path d="M0 0 C1.875 0.3125 1.875 0.3125 4 1 C6.18038095 4.27057143 6.63246755 5.20519469 6 9 C3.9375 11.25 3.9375 11.25 2.5703125 12.46484375 C-0.11701857 15.09201069 -2.22656346 18.18599424 -4.44921875 21.20703125 C-4.96097656 21.79871094 -5.47273438 22.39039063 -6 23 C-6.66 23 -7.32 23 -8 23 C-8.68918286 15.24669281 -6.21639117 8.13988749 -1.75 1.8125 C-1.1725 1.214375 -0.595 0.61625 0 0 Z " fill="#42BDDB" transform="translate(399,174)"/>
<path d="M0 0 C-0.33 3.96 -0.66 7.92 -1 12 C-7.435 12.495 -7.435 12.495 -14 13 C-13.50784314 3.52598039 -13.50784314 3.52598039 -11.25 1.1875 C-7.48618572 -0.79895754 -4.19768172 -0.18519184 0 0 Z " fill="#78CADC" transform="translate(112,115)"/>
<path d="M0 0 C2.8288245 1.23307734 4.42282343 2.74935282 6.4375 5.0625 C4.99363418 8.77529784 3.31513608 10.0111443 -0.1875 11.8125 C-1.00476562 12.24046875 -1.82203125 12.6684375 -2.6640625 13.109375 C-3.29054688 13.42390625 -3.91703125 13.7384375 -4.5625 14.0625 C-5.8825 13.0725 -7.2025 12.0825 -8.5625 11.0625 C-8.28981275 7.1539828 -7.72643951 5.27653214 -5.3125 2.125 C-2.5625 0.0625 -2.5625 0.0625 0 0 Z " fill="#74C3D5" transform="translate(46.5625,153.9375)"/>
<path d="M0 0 C3.79714307 1.53693886 5.4068647 3.67005778 7.625 7.0625 C7.6875 9.8125 7.6875 9.8125 6.625 12.0625 C4.645 13.0525 4.645 13.0525 2.625 14.0625 C-0.675 11.7525 -3.975 9.4425 -7.375 7.0625 C-3.895 0.1025 -3.895 0.1025 0 0 Z " fill="#45BEDC" transform="translate(442.375,153.9375)"/>
<path d="M0 0 C2.375 0.8125 2.375 0.8125 4.375 1.8125 C3.76754603 6.67213179 1.64741033 10.5530518 -0.625 14.8125 C-4.27816671 13.56273244 -5.40565836 13.14151247 -7.625 9.8125 C-7.47307822 6.24233809 -6.96741328 4.28943279 -4.875 1.375 C-2.625 -0.1875 -2.625 -0.1875 0 0 Z " fill="#78CADD" transform="translate(16.625,190.1875)"/>
<path d="M0 0 C2.5625 0.875 2.5625 0.875 4.4375 3.0625 C5.83579104 6.5582276 5.72466024 8.31104192 4.5625 11.875 C1.4625 14.875 1.4625 14.875 -1.4375 14.875 C-2.33179374 13.3024835 -3.20237427 11.71646259 -4.0625 10.125 C-4.54976563 9.24328125 -5.03703125 8.3615625 -5.5390625 7.453125 C-6.4375 4.875 -6.4375 4.875 -5.7109375 2.609375 C-3.92316665 0.17449691 -3.01750717 -0.15474396 0 0 Z " fill="#78CBDE" transform="translate(473.4375,190.125)"/>
<path d="M0 0 C0.83819158 1.62249941 1.6704116 3.24808497 2.5 4.875 C2.9640625 5.77992188 3.428125 6.68484375 3.90625 7.6171875 C5 10 5 10 5 12 C2.03 13.32 -0.94 14.64 -4 16 C-4.99 12.37 -5.98 8.74 -7 5 C-2.25 0 -2.25 0 0 0 Z " fill="#42BBD8" transform="translate(463,197)"/>
<path d="M0 0 C3.48331435 3.01887244 4.79157144 5.56909529 6 10 C1.51626898 12.93167028 1.51626898 12.93167028 -1 14 C-4.06235211 13.23441197 -5.99277153 11.40867416 -8 9 C-8 8.34 -8 7.68 -8 7 C-6.25 5.2734375 -6.25 5.2734375 -4 3.375 C-3.2575 2.74335938 -2.515 2.11171875 -1.75 1.4609375 C-1.1725 0.97882813 -0.595 0.49671875 0 0 Z " fill="#41B1CE" transform="translate(55,164)"/>
<path d="M0 0 C2.84383123 1.2748209 5.13754018 2.45137078 7 5 C6.8125 6.75 6.8125 6.75 6 9 C5.649375 10.2375 5.29875 11.475 4.9375 12.75 C4.628125 13.8225 4.31875 14.895 4 16 C1.36 14.68 -1.28 13.36 -4 12 C-3.45660208 7.43545749 -2.20536179 4.0271824 0 0 Z " fill="#42BAD8" transform="translate(25,197)"/>
<path d="M0 0 C0.556875 0.70125 1.11375 1.4025 1.6875 2.125 C4.09124732 5.11344261 6.53810432 8.05940238 9 11 C7.02 12.65 5.04 14.3 3 16 C0.36 13.03 -2.28 10.06 -5 7 C-3.38262276 3.76524552 -2.52370777 2.29427979 0 0 Z " fill="#4BBCD8" transform="translate(448,178)"/>
<path d="M0 0 C1.98 1.65 3.96 3.3 6 5 C4.63629701 7.99220268 3.05091917 10.29026529 0.875 12.75 C0.06675781 13.67039063 0.06675781 13.67039063 -0.7578125 14.609375 C-1.37269531 15.29773438 -1.37269531 15.29773438 -2 16 C-3.98 14.35 -5.96 12.7 -8 11 C-7.59007813 10.45730469 -7.18015625 9.91460937 -6.7578125 9.35546875 C-6.21898437 8.64003906 -5.68015625 7.92460937 -5.125 7.1875 C-4.59132812 6.47980469 -4.05765625 5.77210938 -3.5078125 5.04296875 C-2.29185219 3.39543703 -1.13583859 1.70375789 0 0 Z " fill="#6FCDE2" transform="translate(39,178)"/>
<path d="M0 0 C2.63671875 2.29492188 2.63671875 2.29492188 5.2734375 4.58984375 C6.95632334 6.06958624 6.95632334 6.06958624 9 7 C7.70700306 9.88437779 6.34058637 11.87219421 4 14 C0.35008834 12.68197635 -1.7895201 11.40785992 -5 9 C-3.35 6.03 -1.7 3.06 0 0 Z " fill="#41B8D6" transform="translate(432,164)"/>
<path d="M0 0 C3.08464774 0.27871164 6.16733279 0.5752341 9.25 0.875 C10.55904297 0.99294922 10.55904297 0.99294922 11.89453125 1.11328125 C12.73886719 1.19707031 13.58320313 1.28085938 14.453125 1.3671875 C15.22817383 1.44050293 16.00322266 1.51381836 16.80175781 1.58935547 C19.15841885 2.02959357 20.91656877 2.83377654 23 4 C18.8444883 7.74791366 15.3143563 7.49096413 9.92578125 7.359375 C5.81128904 6.85399011 3.99365092 5.83183195 1 3 C0.67 2.01 0.34 1.02 0 0 Z " fill="#6AC1D5" transform="translate(187,166)"/>
<path d="M0 0 C-4.32750601 4.44138775 -6.12127746 6.14946594 -12.3125 6.25 C-16.69846392 6.22697657 -19.50883051 5.88924372 -23 3 C-19.50526682 0.8791177 -16.4813111 0.65372198 -12.4375 0.4375 C-0.6536965 -0.21789883 -0.6536965 -0.21789883 0 0 Z " fill="#6BC3D6" transform="translate(303,167)"/>
<path d="M0 0 C7.41265823 0.48607595 7.41265823 0.48607595 10 2.75 C11.15265564 5.34347519 11.07436029 7.19289923 11 10 C9.35369672 9.85957123 7.70795821 9.71250671 6.0625 9.5625 C4.68771484 9.44068359 4.68771484 9.44068359 3.28515625 9.31640625 C1 9 1 9 0 8 C-0.14115161 5.32941149 -0.04247107 2.67567762 0 0 Z " fill="#78CBDD" transform="translate(377,124)"/>
<path d="M0 0 C2.375 1 2.375 1 3.6875 3.0625 C4.0278125 4.0215625 4.0278125 4.0215625 4.375 5 C3.570625 5.28875 2.76625 5.5775 1.9375 5.875 C-0.7576468 6.73262568 -0.7576468 6.73262568 -1.625 9 C-3.275 8.67 -4.925 8.34 -6.625 8 C-6.625 4 -6.625 4 -4.9375 1.6875 C-2.625 0 -2.625 0 0 0 Z " fill="#75C4D6" transform="translate(442.625,154)"/>
<path d="M0 0 C2.31 0.33 4.62 0.66 7 1 C7.33 1.99 7.66 2.98 8 4 C8.66 4.33 9.32 4.66 10 5 C7.69 6.32 5.38 7.64 3 9 C1.68 8.01 0.36 7.02 -1 6 C-0.67 4.02 -0.34 2.04 0 0 Z " fill="#44BEDC" transform="translate(39,159)"/>
<path d="M0 0 C0.99 0.99 1.98 1.98 3 3 C1.6062718 7.43458973 -0.60582235 9.87378374 -4 13 C-5.32 12.34 -6.64 11.68 -8 11 C-6.66636028 6.99908085 -4.196246 5.66353833 -1 3 C-0.67 2.01 -0.34 1.02 0 0 Z " fill="#45C0DE" transform="translate(467,172)"/>
<path d="M0 0 C0.556875 0.7425 1.11375 1.485 1.6875 2.25 C3.93027178 4.91707995 6.22074975 6.91556232 9 9 C8.34 10.32 7.68 11.64 7 13 C2.7257442 11.4169423 0.73468206 8.49431596 -2 5 C-1.34 3.35 -0.68 1.7 0 0 Z " fill="#44BFDD" transform="translate(20,172)"/>
<path d="M0 0 C1.65 1.65 3.3 3.3 5 5 C2.03 7.475 2.03 7.475 -1 10 C-2.32 8.35 -3.64 6.7 -5 5 C-3.35 3.35 -1.7 1.7 0 0 Z " fill="#43BFDD" transform="translate(452,184)"/>
<path d="M0 0 C1.65 1.65 3.3 3.3 5 5 C4.34 6.32 3.68 7.64 3 9 C2.01 9 1.02 9 0 9 C-2.1875 6.5 -2.1875 6.5 -4 4 C-2.68 2.68 -1.36 1.36 0 0 Z " fill="#42BFDD" transform="translate(35,184)"/>
<path d="M0 0 C5.78706199 5.48247978 5.78706199 5.48247978 7 9 C6.67 9.66 6.34 10.32 6 11 C2.34683329 9.75023244 1.21934164 9.32901247 -1 6 C-0.625 2.8125 -0.625 2.8125 0 0 Z " fill="#43B7D4" transform="translate(10,194)"/>
<path d="M0 0 C0.66 0.66 1.32 1.32 2 2 C1.84910669 5.54599288 1.65238084 7.3686637 -0.9375 9.875 C-3 11 -3 11 -5 11 C-5.33 9.68 -5.66 8.36 -6 7 C-5.071875 6.6596875 -5.071875 6.6596875 -4.125 6.3125 C-1.38589791 4.62070165 -0.94975528 3.00755839 0 0 Z " fill="#43B8D5" transform="translate(477,194)"/>
<path d="M0 0 C1.65 0.33 3.3 0.66 5 1 C5.625 2.875 5.625 2.875 6 5 C5.34 5.66 4.68 6.32 4 7 C0.875 6.625 0.875 6.625 -2 6 C-1.34 4.02 -0.68 2.04 0 0 Z " fill="#6CC6DB" transform="translate(26,200)"/>
<path d="M0 0 C0.66 1.98 1.32 3.96 2 6 C0.02 6.33 -1.96 6.66 -4 7 C-4.66 5.35 -5.32 3.7 -6 2 C-2.25 0 -2.25 0 0 0 Z " fill="#70CADE" transform="translate(462,200)"/>
<path d="M0 0 C1.875 0.25 1.875 0.25 4 1 C5.25 3.0625 5.25 3.0625 6 5 C5.34 5.66 4.68 6.32 4 7 C1.375 6.625 1.375 6.625 -1 6 C-0.67 4.02 -0.34 2.04 0 0 Z " fill="#73CDE2" transform="translate(430,167)"/>
<path d="M0 0 C0 2.31 0 4.62 0 7 C-1.65 6.67 -3.3 6.34 -5 6 C-5.33 4.68 -5.66 3.36 -6 2 C-3 0 -3 0 0 0 Z " fill="#74CEE2" transform="translate(58,167)"/>
<path d="M0 0 C2.125 0.375 2.125 0.375 4 1 C3.67 2.32 3.34 3.64 3 5 C1.68 5.33 0.36 5.66 -1 6 C-1.625 4.125 -1.625 4.125 -2 2 C-1.34 1.34 -0.68 0.68 0 0 Z " fill="#76CEE2" transform="translate(448,182)"/>
<path d="M0 0 C1.98 1.65 3.96 3.3 6 5 C5.34 6.32 4.68 7.64 4 9 C3.67 9 3.34 9 3 9 C2.67 7.35 2.34 5.7 2 4 C0.68 3.67 -0.64 3.34 -2 3 C-1.34 2.01 -0.68 1.02 0 0 Z " fill="#42B8D5" transform="translate(39,178)"/>
<path d="M0 0 C1.79068573 2.6860286 2.66055791 4.6626589 3.625 7.6875 C3.88539063 8.49574219 4.14578125 9.30398438 4.4140625 10.13671875 C4.60742188 10.75160156 4.80078125 11.36648438 5 12 C4.01 12 3.02 12 2 12 C0.70756464 7.8803623 -0.26252625 4.33168317 0 0 Z " fill="#ADB8CE" transform="translate(203,342)"/>
<path d="M0 0 C2.17854707 3.2678206 3.49760034 6.38058265 5 10 C4.01 10 3.02 10 2 10 C0.39644899 6.49223216 -0.22036864 3.85645121 0 0 Z " fill="#DEE9ED" transform="translate(192,252)"/>
<path d="M0 0 C0.66 0 1.32 0 2 0 C2.66 1.98 3.32 3.96 4 6 C3.01 6 2.02 6 1 6 C1 5.01 1 4.02 1 3 C-0.32 3.33 -1.64 3.66 -3 4 C-1.625 2 -1.625 2 0 0 Z " fill="#41ABC6" transform="translate(461,197)"/>
<path d="M0 0 C1.98 1.65 3.96 3.3 6 5 C5.01 5.33 4.02 5.66 3 6 C0.8125 4.5625 0.8125 4.5625 -1 3 C-0.67 2.01 -0.34 1.02 0 0 Z " fill="#42AEC9" transform="translate(432,164)"/>
</svg>
